<svg xmlns="http://www.w3.org/2000/svg" viewBox="0 0 23 23"><path d="M1 1h7v7h-7zM11 1h3v1h-1v3h1v5h1v-1h5v1h2v1h-1v1h-1v1h-1v1h1v1h1v1h-1v1h-1v1h-1v1h-1v-1h-4v-1h1v-1h-1v-2h1v1h2v-1h1v-2h2v-1h-2v1h-2v1h-1v-2h-1v-2h-2v2h-1v-2h-1v-6h1v1h2v-1h-1zM15 1h7v7h-7zM2 2v5h5v-5zM16 2v5h5v-5zM3 3h3v3h-3zM17 3h3v3h-3zM11 5v2h-1v1h1v-1h1v1h1v-2h-1v-1zM1 9h1v1h-1zM3 9h5v1h-2v2h-1v-2h-1v2h-1zM8 10h1v1h-1zM1 11h1v2h-1zM7 11h1v1h-1zM12 11h1v1h-1zM9 12h3v1h-3zM5 13h4v1h-4zM12 13h1v1h-1zM15 13h1v1h-1zM21 13h1v2h-1zM9 14h3v1h-3zM1 15h7v7h-7zM17 15v1h2v-1zM2 16v5h5v-5zM9 16h1v1h2v1h-1v1h-1v1h-1zM12 16h1v1h-1zM15 16v1h1v-1zM3 17h3v3h-3zM20 17h2v1h-2zM19 18h1v3h-1v1h-1v-1h-1v-1h2zM12 19h5v1h-2v1h-1v1h-1v-1h-3v-1h2zM9 21h1v1h-1zM15 21h2v1h-2zM20 21h1v1h-1z"/></svg>