<svg xmlns="http://www.w3.org/2000/svg" viewBox="0 0 27 27"><path d="M1 1h7v7h-7zM15 1h3v1h-2v1h-1v1h-1v-2h1zM19 1h7v7h-7zM2 2v5h5v-5zM9 2h2v1h-1v1h3v1h-1v1h-1v-1h-2zM12 2h1v1h-1zM20 2v5h5v-5zM3 3h3v3h-3zM16 3h1v2h-1zM21 3h3v3h-3zM17 5h1v3h-1zM10 6h1v1h-1zM12 6h2v2h-1v-1h-1zM9 7h1v1h1v2h-1v1h-1zM11 7h1v1h-1zM15 7h1v1h1v3h1v1h-1v2h1v2h1v-1h1v-1h-1v-1h2v2h2v1h1v2h-1v-1h-1v-1h-1v1h1v5h-2v1h-1v1h-1v-2h-1v2h-1v-1h-1v-2h1v-1h1v-2h-1v-1h1v-1h-1v-4h-1v2h-2v-3h-2v-1h1v-1h1v1h2v1h1v-2h-1zM1 9h1v2h-1zM7 9h1v1h-1zM18 9h2v1h-2zM22 9h3v2h1v3h-1v-2h-1v-1h-1v2h-1v-2h-1v1h-2v-1h1v-1h2zM4 10h1v1h1v-1h1v1h2v1h-2v1h1v1h-2v-1h-1v-1h-1v1h-1v-2h1zM10 11h1v1h-1zM9 12h1v1h-1zM18 12h1v1h-1zM1 13h1v1h2v1h1v-1h1v1h3v2h1v-2h-1v-1h2v3h1v-2h2v1h-1v2h-1v1h-1v-1h-1v1h-1v-1h-3v-1h2v-1h-5v-1h-1v3h-1zM11 13h1v1h-1zM24 14h1v1h1v2h-1v-1h-1zM3 17h1v1h-1zM13 18h3v1h-3zM18 18v3h3v-3zM1 19h7v7h-7zM12 19h1v1h-1zM19 19h1v1h-1zM25 19h1v7h-1v-3h-1v-1h1v-1h-1v-1h1zM2 20v5h5v-5zM10 20h2v1h-1v1h-1zM13 20h2v1h-1v1h-1zM3 21h3v3h-3zM23 21h1v1h-1zM11 22h1v1h2v1h-1v1h-1v-1h-1zM22 23h2v1h-2zM15 24h1v2h-2v-1h1zM17 24h1v2h-1zM19 24h3v1h-3zM9 25h3v1h-3zM22 25h1v1h-1z"/></svg>